<svg version="1.2" xmlns="http://www.w3.org/2000/svg" viewBox="3.57 2 394.77 368"><style>.a{fill:#e85984}.b{fill:#e51050}.c{fill:#fff}.d{fill:#770829}</style><path class="a" d="m3.6 43.8c21.5-13.9 43-27.8 64.4-41.8 0 99 0.1 198.1-0.1 297.1-8.4 5.6-16.9 11-25.3 16.6-10.9 6.7-21.5 13.7-32.1 20.8-2.1 1.5-4.4 2.7-6.7 3.7-0.1-98.8 0.1-197.6-0.2-296.4z"/><path fill-rule="evenodd" class="b" d="m68 2c94.7 0 189.4 0 284.1 0 9.8 0.1 19.3 7.9 20.2 18 0.3 17.8-0.3 35.5 0.3 53.3 0.2 67.9 0 135.8 0.1 203.7-0.2 7.4 0.3 14.9-0.3 22.3-31.7 0.3-63.4 0-95.2 0.1q-99 0-198 0c-3.7 0.1-7.5 0.1-11.3-0.3 0.2-99 0.1-198.1 0.1-297.1zm130.1 61.8c-6.3 18.2-11.3 36.8-17.2 55.1q-16.4 53.6-32.8 107.2c-1 2.9-1.8 5.8-2.3 8.8 10.3 0.2 20.7 0.2 31 0 4-13.8 8-27.5 11.8-41.3 0.4-1.2 0.9-2.4 1.4-3.6 19.6 0.1 39.2-0.2 58.8 0.2 4.7 14.9 9.2 29.9 14.2 44.8 10.6 0 21.2 0.1 31.7-0.1-6.2-21-13.4-41.8-19.9-62.7-11.7-36.1-23.1-72.3-34.9-108.4-13.9-0.3-27.9-0.3-41.8 0z"/><path class="b" d="m218.6 86c2 4.8 2.8 10 4.4 15 6 21.3 12.3 42.5 18.1 63.9q-22.1 0.3-44.2 0c6.8-26.4 14.8-52.5 21.7-78.9z"/><path fill-rule="evenodd" class="c" d="m198.1 63.8c13.9-0.3 27.9-0.3 41.8 0 11.8 36.1 23.2 72.3 34.9 108.4 6.5 20.9 13.7 41.7 20 62.7-10.6 0.2-21.2 0.1-31.8 0.1-5-14.9-9.4-29.9-14.2-44.8-19.6-0.4-39.2-0.1-58.8-0.2-0.5 1.2-1 2.4-1.3 3.6-3.9 13.8-7.9 27.5-11.9 41.3-10.3 0.2-20.7 0.2-31 0 0.5-3 1.3-5.9 2.3-8.8q16.4-53.6 32.8-107.2c5.9-18.3 10.9-37 17.2-55.1zm20.5 22.2c-6.9 26.4-14.9 52.5-21.7 78.9q22.1 0.3 44.2 0c-5.8-21.4-12.1-42.6-18.1-63.9-1.6-5-2.4-10.2-4.4-15z"/><path class="d" d="m372.6 73.3c8.4-1.1 17-0.5 25.5-0.4 0.4 22.4 0 44.7 0.2 67.1q0 107 0 214c-0.1 5.3 0.1 10.6-0.2 15.9-110 0.2-220.1 0-330.1 0.1-6.5 0-13.7-0.6-18.8-5.2-3.8-3.6-6.7-8.5-6.6-13.8 0-11.8 0-23.6 0-35.3 8.4-5.6 16.9-11 25.4-16.6 3.7 0.4 7.5 0.4 11.3 0.3q99 0 197.9 0c31.8-0.1 63.5 0.2 95.2-0.1 0.6-7.4 0.1-14.9 0.3-22.3-0.1-67.9 0.1-135.8-0.1-203.7z"/></svg>