<svg version="1.2" xmlns="http://www.w3.org/2000/svg" viewBox="16.6 23.6 304.03 106.32"><style/><path fill-rule="evenodd" d="m116.2 23.6v72.5h-8.7v-64.2h-10.8v98q-0.9-0.7-1.7-1.5-1-1-1.9-2.1-1.9-2.4-3.2-5.2-1.9-4.2-1.9-8.9v-76.9l-31.3 30.2-31.4-28.1v41.7l17.9 17.1h-16.1q-2.2 0-4.1-0.8-2-0.8-3.4-2.2-1.4-1.4-2.2-3.2-0.8-1.9-0.8-4v-62.4h29.8l22.3 19.7 19.3-19.7zm-53.8 25.4l-19.3-17.1h-11l24.6 22.3z"/><path d="m95.8 119.1l-44.5-44.3-0.2-3.8q-0.1-3.6-2.7-6-2.5-2.4-6.1-2.3l-12.7 0.5 66.6 66.2z"/><path d="m137.5 33.3q0-1 1-1h8.6q1 0 1.3 0.7 0 0 0 0l11.6 20.9h0.2l11.6-20.9q0.3-0.7 1.2-0.7h8.7q1 0 1 1v39.1q0 1-1 1h-7.5q-0.9 0-0.9-1v-24.4h-0.2l-9.1 15.9q-0.3 0.7-1.1 0.7h-5.6q-0.8 0-1.1-0.7l-9.1-15.9h-0.1v24.4q0 1-1 1h-7.5q-1 0-1-1z"/><path fill-rule="evenodd" d="m191.2 72.8q0-0.3 0.1-0.6l15.3-39.1q0.3-0.8 1.2-0.8h8.8q0.9 0 1.1 0.8l15.3 38.8q0 0.3 0.1 0.3 0 0.3 0 0.5 0 0.7-0.8 0.7h-7.9q-0.9 0-1.1-0.8l-2.3-6.4h-17.6l-2.3 6.4q-0.3 0.8-1.1 0.8h-7.9q-0.9 0-0.9-0.6zm20.9-30.1l-5.6 15.1h11.3l-5.5-15.1z"/><path fill-rule="evenodd" d="m241.7 33.3q0-1 0.9-1h16.1q7.6 0 11.8 3.8 4.2 3.7 4.2 10.3 0 4.2-1.7 7.4-1.8 3.2-5.1 4.9 1.8 0.4 3.7 2.6 1.9 2.3 2.4 5.1l1.1 5.9v0.3q0 0.8-0.9 0.8h-8.5q-0.8 0-1-0.9-1.2-6.4-3.8-9.1-2.6-2.6-7.4-2.6h-2.3v11.6q0 1-1 1h-7.6q-0.9 0-0.9-1zm9.5 7.8v10.9h7.3q6.5 0 6.5-5.5 0-5.4-6.5-5.4z"/><path d="m285.8 33.3q0-1 0.9-1h7.6q1 0 1 1v16.1h2q5.8 0 8.7-3.7 2.9-3.8 2.9-12.5 0-0.4 0.3-0.6 0.3-0.3 0.7-0.3h8.5q0.9 0 0.9 0.9v0.2q0 8.7-2.9 14.1-2.9 5.3-8.7 7.8l12.7 16.9q0.2 0.2 0.2 0.6l-0.2 0.3q0 0.3-0.7 0.3h-8.9q-0.9 0-1.2-0.7l-10.8-14.2h-3.5v13.9q0 1-1 1h-7.6q-0.9 0-0.9-1z"/><path d="m137.5 88.1q0-0.3 0.4-0.3h3.9q0.4 0 0.5 0.4l4.6 13h0.1l4.5-13q0.1-0.4 0.6-0.4h3.8q0.4 0 0.4 0.3 0 0.1 0 0.2l-7 18.7q-0.1 0.4-0.5 0.4h-3.7q-0.4 0-0.5-0.4l-7-18.5q0-0.1 0-0.2-0.1-0.1-0.1-0.2z"/><path fill-rule="evenodd" d="m157.4 107.1q0-0.1 0-0.2l7.3-18.7q0.1-0.4 0.6-0.4h4.2q0.4 0 0.5 0.4l7.3 18.5q0 0.1 0.1 0.2 0 0.1 0 0.2 0 0.3-0.4 0.3h-3.8q-0.4 0-0.5-0.4l-1.1-3h-8.4l-1.1 3q-0.1 0.4-0.6 0.4h-3.7q-0.4 0-0.4-0.3zm9.9-14.3l-2.6 7.2h5.4l-2.7-7.2z"/><path d="m182.6 88.2q0-0.4 0.4-0.4h3.7q0.4 0 0.4 0.4v15h8.4q0.4 0 0.4 0.4v3.3q0 0.5-0.4 0.5h-12.5q-0.4 0-0.4-0.5z"/><path d="m201.5 88.2q0-0.4 0.4-0.4h13q0.5 0 0.5 0.4v3.3q0 0.5-0.5 0.5h-8.9v3.6h7q0.4 0 0.4 0.4v3.2q0 0.4-0.4 0.4h-7v3.6h9.1q0.4 0 0.4 0.5v3.2q0 0.5-0.4 0.5h-13.2q-0.4 0-0.4-0.5z"/><path d="m221.6 88.2q0-0.4 0.4-0.4h3.5q0.4 0 0.6 0.3l8.3 11.7h0.1v-11.6q0-0.4 0.4-0.4h3.6q0.5 0 0.5 0.4v18.7q0 0.5-0.5 0.5h-3.5q-0.3 0-0.5-0.3l-8.4-11.7v11.5q0 0.5-0.5 0.5h-3.6q-0.4 0-0.4-0.5z"/><path d="m244.4 91.6v-3.4q0-0.4 0.4-0.4h14.7q0.4 0 0.4 0.4v3.4q0 0.4-0.4 0.4h-5.1v14.9q0 0.5-0.5 0.5h-3.6q-0.4 0-0.4-0.5v-14.9h-5.1q-0.4 0-0.4-0.4z"/><path d="m265.2 88.2q0-0.4 0.5-0.4h3.6q0.5 0 0.5 0.4v18.7q0 0.5-0.5 0.5h-3.6q-0.5 0-0.5-0.5z"/><path d="m276.6 88.2q0-0.4 0.5-0.4h3.5q0.3 0 0.5 0.3l8.4 11.7v-11.6q0-0.4 0.5-0.4h3.6q0.5 0 0.5 0.4v18.7q0 0.5-0.5 0.5h-3.5q-0.4 0-0.6-0.3l-8.3-11.7h-0.1v11.5q0 0.5-0.4 0.5h-3.6q-0.5 0-0.5-0.5z"/><path fill-rule="evenodd" d="m317.6 104.8q-2.9 3-7.3 3-4.3 0-7.2-3-3-2.9-3-7.2 0-4.3 3-7.2 2.9-3 7.2-3 4.4 0 7.3 3 3 2.9 3 7.2 0 4.3-3 7.2zm-11.3-3q1.5 1.7 4 1.7 2.5 0 4.1-1.7 1.5-1.6 1.5-4.2 0-2.6-1.5-4.2-1.6-1.7-4.1-1.7-2.5 0-4 1.7-1.5 1.6-1.5 4.2 0 2.6 1.5 4.2z"/></svg>