<svg xmlns="http://www.w3.org/2000/svg" version="1.1" viewBox="157.28 66.43 485.45 467.13">
  <desc>Produce by Acme CAD Converter</desc>
<path d="M171.79 150.57L559.6 150.57" fill="none" stroke="#ff5722" stroke-width="0.25" stroke-opacity="0.1"/>
<path d="M171.79 150.57L171.79 405.71Z" fill="none" stroke="#ff5722" stroke-width="0.25" stroke-opacity="0.1"/>
<path d="M171.79 405.71L559.6 405.71" fill="none" stroke="#ff5722" stroke-width="0.25" stroke-opacity="0.1"/>
<path d="M559.6 150.57L559.6 405.71Z" fill="none" stroke="#ff5722" stroke-width="0.25" stroke-opacity="0.1"/>
<path d="M181.54 418.71L568.79 397.72" fill="none" stroke="#ff5722" stroke-width="0.25" stroke-opacity="0.1"/>
<path d="M167.73 163.95L554.97 142.95" fill="none" stroke="#ff5722" stroke-width="0.25" stroke-opacity="0.1"/>
<path d="M167.73 163.95L181.54 418.71" fill="none" stroke="#ff5722" stroke-width="0.25" stroke-opacity="0.1"/>
<path d="M554.97 142.95L568.79 397.72" fill="none" stroke="#ff5722" stroke-width="0.25" stroke-opacity="0.1"/>
<path d="M191.98 431.17L577.52 389.24" fill="none" stroke="#ff5722" stroke-width="0.25" stroke-opacity="0.1"/>
<path d="M164.4 177.53L549.94 135.6" fill="none" stroke="#ff5722" stroke-width="0.25" stroke-opacity="0.1"/>
<path d="M164.4 177.53L191.98 431.17" fill="none" stroke="#ff5722" stroke-width="0.25" stroke-opacity="0.1"/>
<path d="M549.94 135.6L577.52 389.24" fill="none" stroke="#ff5722" stroke-width="0.25" stroke-opacity="0.1"/>
<path d="M203.08 443.05L585.79 380.31" fill="none" stroke="#ff5722" stroke-width="0.25" stroke-opacity="0.1"/>
<path d="M161.8 191.27L544.51 128.53" fill="none" stroke="#ff5722" stroke-width="0.25" stroke-opacity="0.1"/>
<path d="M161.8 191.27L203.08 443.05" fill="none" stroke="#ff5722" stroke-width="0.25" stroke-opacity="0.1"/>
<path d="M544.51 128.53L585.79 380.31" fill="none" stroke="#ff5722" stroke-width="0.25" stroke-opacity="0.1"/>
<path d="M214.81 454.31L593.56 370.94" fill="none" stroke="#ff5722" stroke-width="0.25" stroke-opacity="0.1"/>
<path d="M159.96 205.13L538.71 121.76" fill="none" stroke="#ff5722" stroke-width="0.25" stroke-opacity="0.1"/>
<path d="M159.96 205.13L214.81 454.31" fill="none" stroke="#ff5722" stroke-width="0.25" stroke-opacity="0.1"/>
<path d="M538.71 121.76L593.56 370.94" fill="none" stroke="#ff5722" stroke-width="0.25" stroke-opacity="0.1"/>
<path d="M227.13 464.91L600.81 361.16" fill="none" stroke="#ff5722" stroke-width="0.25" stroke-opacity="0.1"/>
<path d="M158.87 219.07L532.55 115.32" fill="none" stroke="#ff5722" stroke-width="0.25" stroke-opacity="0.1"/>
<path d="M158.87 219.07L227.13 464.91" fill="none" stroke="#ff5722" stroke-width="0.25" stroke-opacity="0.1"/>
<path d="M532.55 115.32L600.81 361.16" fill="none" stroke="#ff5722" stroke-width="0.25" stroke-opacity="0.1"/>
<path d="M240.01 474.84L607.52 351" fill="none" stroke="#ff5722" stroke-width="0.25" stroke-opacity="0.1"/>
<path d="M158.54 233.05L526.05 109.22" fill="none" stroke="#ff5722" stroke-width="0.25" stroke-opacity="0.1"/>
<path d="M158.54 233.05L240.01 474.84" fill="none" stroke="#ff5722" stroke-width="0.25" stroke-opacity="0.1"/>
<path d="M526.05 109.22L607.52 351" fill="none" stroke="#ff5722" stroke-width="0.25" stroke-opacity="0.1"/>
<path d="M253.4 484.05L613.67 340.5" fill="none" stroke="#ff5722" stroke-width="0.25" stroke-opacity="0.1"/>
<path d="M158.96 247.03L519.24 103.48" fill="none" stroke="#ff5722" stroke-width="0.25" stroke-opacity="0.1"/>
<path d="M158.96 247.03L253.4 484.05" fill="none" stroke="#ff5722" stroke-width="0.25" stroke-opacity="0.1"/>
<path d="M519.24 103.48L613.67 340.5" fill="none" stroke="#ff5722" stroke-width="0.25" stroke-opacity="0.1"/>
<path d="M267.27 492.52L619.25 329.68" fill="none" stroke="#ff5722" stroke-width="0.25" stroke-opacity="0.1"/>
<path d="M160.14 260.96L512.12 98.12" fill="none" stroke="#ff5722" stroke-width="0.25" stroke-opacity="0.1"/>
<path d="M160.14 260.96L267.27 492.52" fill="none" stroke="#ff5722" stroke-width="0.25" stroke-opacity="0.1"/>
<path d="M512.12 98.12L619.25 329.68" fill="none" stroke="#ff5722" stroke-width="0.25" stroke-opacity="0.1"/>
<path d="M281.59 500.23L624.23 318.57" fill="none" stroke="#ff5722" stroke-width="0.25" stroke-opacity="0.1"/>
<path d="M162.08 274.81L504.72 93.15" fill="none" stroke="#ff5722" stroke-width="0.25" stroke-opacity="0.1"/>
<path d="M162.08 274.81L281.59 500.23" fill="none" stroke="#ff5722" stroke-width="0.25" stroke-opacity="0.1"/>
<path d="M504.72 93.15L624.23 318.57" fill="none" stroke="#ff5722" stroke-width="0.25" stroke-opacity="0.1"/>
<path d="M296.29 507.15L628.6 307.21" fill="none" stroke="#ff5722" stroke-width="0.25" stroke-opacity="0.1"/>
<path d="M164.76 288.53L497.06 88.59" fill="none" stroke="#ff5722" stroke-width="0.25" stroke-opacity="0.1"/>
<path d="M164.76 288.53L296.29 507.15" fill="none" stroke="#ff5722" stroke-width="0.25" stroke-opacity="0.1"/>
<path d="M497.06 88.59L628.6 307.21" fill="none" stroke="#ff5722" stroke-width="0.25" stroke-opacity="0.1"/>
<path d="M311.36 513.27L632.35 295.63" fill="none" stroke="#ff5722" stroke-width="0.25" stroke-opacity="0.1"/>
<path d="M168.17 302.09L489.17 84.45" fill="none" stroke="#ff5722" stroke-width="0.25" stroke-opacity="0.1"/>
<path d="M168.17 302.09L311.36 513.27" fill="none" stroke="#ff5722" stroke-width="0.25" stroke-opacity="0.1"/>
<path d="M489.17 84.45L632.35 295.63" fill="none" stroke="#ff5722" stroke-width="0.25" stroke-opacity="0.1"/>
<path d="M326.73 518.56L635.47 283.86" fill="none" stroke="#ff5722" stroke-width="0.25" stroke-opacity="0.1"/>
<path d="M172.32 315.44L481.06 80.75" fill="none" stroke="#ff5722" stroke-width="0.25" stroke-opacity="0.1"/>
<path d="M172.32 315.44L326.73 518.56" fill="none" stroke="#ff5722" stroke-width="0.25" stroke-opacity="0.1"/>
<path d="M481.06 80.75L635.47 283.86" fill="none" stroke="#ff5722" stroke-width="0.25" stroke-opacity="0.1"/>
<path d="M342.36 523.01L637.94 271.95" fill="none" stroke="#ff5722" stroke-width="0.25" stroke-opacity="0.1"/>
<path d="M177.19 328.55L472.77 77.49" fill="none" stroke="#ff5722" stroke-width="0.25" stroke-opacity="0.1"/>
<path d="M177.19 328.55L342.36 523.01" fill="none" stroke="#ff5722" stroke-width="0.25" stroke-opacity="0.1"/>
<path d="M472.77 77.49L637.94 271.95" fill="none" stroke="#ff5722" stroke-width="0.25" stroke-opacity="0.1"/>
<path d="M358.21 526.61L639.77 259.91" fill="none" stroke="#ff5722" stroke-width="0.25" stroke-opacity="0.1"/>
<path d="M182.75 341.38L464.31 74.68" fill="none" stroke="#ff5722" stroke-width="0.25" stroke-opacity="0.1"/>
<path d="M182.75 341.38L358.21 526.61" fill="none" stroke="#ff5722" stroke-width="0.25" stroke-opacity="0.1"/>
<path d="M464.31 74.68L639.77 259.91" fill="none" stroke="#ff5722" stroke-width="0.25" stroke-opacity="0.1"/>
<path d="M374.24 529.35L640.94 247.8" fill="none" stroke="#ff5722" stroke-width="0.25" stroke-opacity="0.1"/>
<path d="M189.01 353.89L455.71 72.33" fill="none" stroke="#ff5722" stroke-width="0.25" stroke-opacity="0.1"/>
<path d="M189.01 353.89L374.24 529.35" fill="none" stroke="#ff5722" stroke-width="0.25" stroke-opacity="0.1"/>
<path d="M455.71 72.33L640.94 247.8" fill="none" stroke="#ff5722" stroke-width="0.25" stroke-opacity="0.1"/>
<path d="M390.39 531.21L641.45 235.63" fill="none" stroke="#ff5722" stroke-width="0.25" stroke-opacity="0.1"/>
<path d="M195.93 366.04L447 70.46" fill="none" stroke="#ff5722" stroke-width="0.25" stroke-opacity="0.1"/>
<path d="M195.93 366.04L390.39 531.21" fill="none" stroke="#ff5722" stroke-width="0.25" stroke-opacity="0.1"/>
<path d="M447 70.46L641.45 235.63" fill="none" stroke="#ff5722" stroke-width="0.25" stroke-opacity="0.1"/>
<path d="M406.61 532.2L641.31 223.46" fill="none" stroke="#ff5722" stroke-width="0.25" stroke-opacity="0.1"/>
<path d="M203.5 377.79L438.19 69.06" fill="none" stroke="#ff5722" stroke-width="0.25" stroke-opacity="0.1"/>
<path d="M203.5 377.79L406.61 532.2" fill="none" stroke="#ff5722" stroke-width="0.25" stroke-opacity="0.1"/>
<path d="M438.19 69.06L641.31 223.46" fill="none" stroke="#ff5722" stroke-width="0.25" stroke-opacity="0.1"/>
<path d="M422.87 532.31L640.51 211.32" fill="none" stroke="#ff5722" stroke-width="0.25" stroke-opacity="0.1"/>
<path d="M211.69 389.12L429.33 68.13" fill="none" stroke="#ff5722" stroke-width="0.25" stroke-opacity="0.1"/>
<path d="M211.69 389.12L422.87 532.31" fill="none" stroke="#ff5722" stroke-width="0.25" stroke-opacity="0.1"/>
<path d="M429.33 68.13L640.51 211.32" fill="none" stroke="#ff5722" stroke-width="0.25" stroke-opacity="0.1"/>
<path d="M439.11 531.53L639.05 199.23" fill="none" stroke="#ff5722" stroke-width="0.25" stroke-opacity="0.1"/>
<path d="M220.49 399.99L420.43 67.69" fill="none" stroke="#ff5722" stroke-width="0.25" stroke-opacity="0.1"/>
<path d="M220.49 399.99L439.11 531.53" fill="none" stroke="#ff5722" stroke-width="0.25" stroke-opacity="0.1"/>
<path d="M420.43 67.69L639.05 199.23" fill="none" stroke="#ff5722" stroke-width="0.25" stroke-opacity="0.1"/>
<path d="M455.28 529.88L636.94 187.24" fill="none" stroke="#ff5722" stroke-width="0.25" stroke-opacity="0.1"/>
<path d="M229.86 410.37L411.52 67.73" fill="none" stroke="#ff5722" stroke-width="0.25" stroke-opacity="0.1"/>
<path d="M229.86 410.37L455.28 529.88" fill="none" stroke="#ff5722" stroke-width="0.25" stroke-opacity="0.1"/>
<path d="M411.52 67.73L636.94 187.24" fill="none" stroke="#ff5722" stroke-width="0.25" stroke-opacity="0.1"/>
<path d="M471.34 527.36L634.18 175.39" fill="none" stroke="#ff5722" stroke-width="0.25" stroke-opacity="0.1"/>
<path d="M239.78 420.23L402.62 68.26" fill="none" stroke="#ff5722" stroke-width="0.25" stroke-opacity="0.1"/>
<path d="M239.78 420.23L471.34 527.36" fill="none" stroke="#ff5722" stroke-width="0.25" stroke-opacity="0.1"/>
<path d="M402.62 68.26L634.18 175.39" fill="none" stroke="#ff5722" stroke-width="0.25" stroke-opacity="0.1"/>
<path d="M487.24 523.97L630.78 163.7" fill="none" stroke="#ff5722" stroke-width="0.25" stroke-opacity="0.1"/>
<path d="M250.22 429.53L393.76 69.26" fill="none" stroke="#ff5722" stroke-width="0.25" stroke-opacity="0.1"/>
<path d="M250.22 429.53L487.24 523.97" fill="none" stroke="#ff5722" stroke-width="0.25" stroke-opacity="0.1"/>
<path d="M393.76 69.26L630.78 163.7" fill="none" stroke="#ff5722" stroke-width="0.25" stroke-opacity="0.1"/>
<path d="M502.93 519.72L626.76 152.21" fill="none" stroke="#ff5722" stroke-width="0.25" stroke-opacity="0.1"/>
<path d="M261.14 438.26L384.97 70.74" fill="none" stroke="#ff5722" stroke-width="0.25" stroke-opacity="0.1"/>
<path d="M261.14 438.26L502.93 519.72" fill="none" stroke="#ff5722" stroke-width="0.25" stroke-opacity="0.1"/>
<path d="M384.97 70.74L626.76 152.21" fill="none" stroke="#ff5722" stroke-width="0.25" stroke-opacity="0.1"/>
<path d="M518.37 514.64L622.12 140.96" fill="none" stroke="#ff5722" stroke-width="0.25" stroke-opacity="0.1"/>
<path d="M272.53 446.38L376.28 72.7" fill="none" stroke="#ff5722" stroke-width="0.25" stroke-opacity="0.1"/>
<path d="M272.53 446.38L518.37 514.64" fill="none" stroke="#ff5722" stroke-width="0.25" stroke-opacity="0.1"/>
<path d="M376.28 72.7L622.12 140.96" fill="none" stroke="#ff5722" stroke-width="0.25" stroke-opacity="0.1"/>
<path d="M533.51 508.72L616.88 129.97" fill="none" stroke="#ff5722" stroke-width="0.25" stroke-opacity="0.1"/>
<path d="M284.33 453.87L367.7 75.12" fill="none" stroke="#ff5722" stroke-width="0.25" stroke-opacity="0.1"/>
<path d="M284.33 453.87L533.51 508.72" fill="none" stroke="#ff5722" stroke-width="0.25" stroke-opacity="0.1"/>
<path d="M367.7 75.12L616.88 129.97" fill="none" stroke="#ff5722" stroke-width="0.25" stroke-opacity="0.1"/>
<path d="M548.31 501.99L611.05 119.28" fill="none" stroke="#ff5722" stroke-width="0.25" stroke-opacity="0.1"/>
<path d="M296.53 460.71L359.27 78.01" fill="none" stroke="#ff5722" stroke-width="0.25" stroke-opacity="0.1"/>
<path d="M296.53 460.71L548.31 501.99" fill="none" stroke="#ff5722" stroke-width="0.25" stroke-opacity="0.1"/>
<path d="M359.27 78.01L611.05 119.28" fill="none" stroke="#ff5722" stroke-width="0.25" stroke-opacity="0.1"/>
<path d="M562.72 494.47L604.65 108.93" fill="none" stroke="#ff5722" stroke-width="0.25" stroke-opacity="0.1"/>
<path d="M309.07 466.89L351 81.34" fill="none" stroke="#ff5722" stroke-width="0.25" stroke-opacity="0.1"/>
<path d="M309.07 466.89L562.72 494.47" fill="none" stroke="#ff5722" stroke-width="0.25" stroke-opacity="0.1"/>
<path d="M351 81.34L604.65 108.93" fill="none" stroke="#ff5722" stroke-width="0.25" stroke-opacity="0.1"/>
<path d="M576.71 486.18L597.7 98.93" fill="none" stroke="#ff5722" stroke-width="0.25" stroke-opacity="0.1"/>
<path d="M321.94 472.37L342.93 85.12" fill="none" stroke="#ff5722" stroke-width="0.25" stroke-opacity="0.1"/>
<path d="M321.94 472.37L576.71 486.18" fill="none" stroke="#ff5722" stroke-width="0.25" stroke-opacity="0.1"/>
<path d="M342.93 85.12L597.7 98.93" fill="none" stroke="#ff5722" stroke-width="0.25" stroke-opacity="0.1"/>
<path d="M590.22 477.15L590.22 89.33Z" fill="none" stroke="#ff5722" stroke-width="0.25" stroke-opacity="0.1"/>
<path d="M335.08 477.15L335.08 89.33Z" fill="none" stroke="#ff5722" stroke-width="0.25" stroke-opacity="0.1"/>
<path d="M335.08 477.15L590.22 477.15" fill="none" stroke="#ff5722" stroke-width="0.25" stroke-opacity="0.1"/>
<path d="M335.08 89.33L590.22 89.33" fill="none" stroke="#ff5722" stroke-width="0.25" stroke-opacity="0.1"/>
</svg>